<?xml version="1.0" encoding="UTF-8" standalone="no"?>
<!-- Created with Inkscape (http://www.inkscape.org/) -->

<svg
   version="1.1"
   id="svg1"
   width="4005.0364"
   height="3947.2563"
   viewBox="0 0 4005.0364 3947.2563"
   sodipodi:docname="acnl.svg"
   inkscape:version="1.4.3 (0d15f75042, 2025-12-25)"
   xml:space="preserve"
   xmlns:inkscape="http://www.inkscape.org/namespaces/inkscape"
   xmlns:sodipodi="http://sodipodi.sourceforge.net/DTD/sodipodi-0.dtd"
   xmlns:xlink="http://www.w3.org/1999/xlink"
   xmlns="http://www.w3.org/2000/svg"
   xmlns:svg="http://www.w3.org/2000/svg"><defs
     id="defs1"><inkscape:path-effect
       effect="fillet_chamfer"
       id="path-effect69"
       is_visible="true"
       lpeversion="1"
       nodesatellites_param="F,0,1,1,0,0.69390483,0,1 @ F,0,0,1,0,0,0,1 @ F,0,0,1,0,0,0,1 @ F,0,1,1,0,0.69390483,0,1"
       radius="0"
       unit="px"
       method="auto"
       mode="F"
       chamfer_steps="1"
       flexible="false"
       use_knot_distance="true"
       apply_no_radius="true"
       apply_with_radius="true"
       only_selected="false"
       hide_knots="false" /><inkscape:path-effect
       effect="fillet_chamfer"
       id="path-effect67"
       is_visible="true"
       lpeversion="1"
       nodesatellites_param="F,0,0,1,0,0,0,1 @ F,0,0,1,0,0,0,1 @ F,0,0,1,0,0,0,1 @ F,0,0,1,0,0,0,1 @ F,0,0,1,0,0,0,1 @ F,0,0,1,0,0.50764632,0,1 @ F,0,0,1,0,0,0,1"
       radius="0"
       unit="px"
       method="auto"
       mode="F"
       chamfer_steps="1"
       flexible="false"
       use_knot_distance="true"
       apply_no_radius="true"
       apply_with_radius="true"
       only_selected="false"
       hide_knots="false" /><inkscape:path-effect
       effect="fillet_chamfer"
       id="path-effect64"
       is_visible="true"
       lpeversion="1"
       nodesatellites_param="F,0,1,1,0,0.69390483,0,1 @ F,0,0,1,0,0,0,1 @ F,0,0,1,0,0,0,1 @ F,0,1,1,0,0.69390483,0,1"
       radius="0"
       unit="px"
       method="auto"
       mode="F"
       chamfer_steps="1"
       flexible="false"
       use_knot_distance="true"
       apply_no_radius="true"
       apply_with_radius="true"
       only_selected="false"
       hide_knots="false" /><inkscape:path-effect
       effect="fillet_chamfer"
       id="path-effect62"
       is_visible="true"
       lpeversion="1"
       nodesatellites_param="F,0,0,1,0,0,0,1 @ F,0,0,1,0,0,0,1 @ F,0,0,1,0,0,0,1 @ F,0,0,1,0,0,0,1 @ F,0,0,1,0,0,0,1 @ F,0,0,1,0,0.50764632,0,1 @ F,0,0,1,0,0,0,1"
       radius="0"
       unit="px"
       method="auto"
       mode="F"
       chamfer_steps="1"
       flexible="false"
       use_knot_distance="true"
       apply_no_radius="true"
       apply_with_radius="true"
       only_selected="false"
       hide_knots="false" /><inkscape:path-effect
       effect="fillet_chamfer"
       id="path-effect60"
       is_visible="true"
       lpeversion="1"
       nodesatellites_param="F,0,0,1,0,0,0,1 @ F,0,0,1,0,0,0,1 @ F,0,0,1,0,0,0,1 @ F,0,0,1,0,0,0,1 @ F,0,0,1,0,0,0,1 @ F,0,0,1,0,0.50764632,0,1 @ F,0,0,1,0,0,0,1"
       radius="0"
       unit="px"
       method="auto"
       mode="F"
       chamfer_steps="1"
       flexible="false"
       use_knot_distance="true"
       apply_no_radius="true"
       apply_with_radius="true"
       only_selected="false"
       hide_knots="false" /><inkscape:path-effect
       effect="fillet_chamfer"
       id="path-effect58"
       is_visible="true"
       lpeversion="1"
       nodesatellites_param="F,0,0,1,0,0,0,1 @ F,0,0,1,0,0,0,1 @ F,0,0,1,0,0,0,1 @ F,0,0,1,0,0,0,1 @ F,0,0,1,0,0,0,1 @ F,0,0,1,0,0.50764632,0,1 @ F,0,0,1,0,0,0,1"
       radius="0"
       unit="px"
       method="auto"
       mode="F"
       chamfer_steps="1"
       flexible="false"
       use_knot_distance="true"
       apply_no_radius="true"
       apply_with_radius="true"
       only_selected="false"
       hide_knots="false" /><inkscape:path-effect
       effect="fillet_chamfer"
       id="path-effect56"
       is_visible="true"
       lpeversion="1"
       nodesatellites_param="F,0,0,1,0,0,0,1 @ F,0,0,1,0,0,0,1 @ F,0,0,1,0,0,0,1 @ F,0,0,1,0,0,0,1 @ F,0,0,1,0,0,0,1 @ F,0,0,1,0,0.50764632,0,1 @ F,0,0,1,0,0,0,1"
       radius="0"
       unit="px"
       method="auto"
       mode="F"
       chamfer_steps="1"
       flexible="false"
       use_knot_distance="true"
       apply_no_radius="true"
       apply_with_radius="true"
       only_selected="false"
       hide_knots="false" /><inkscape:path-effect
       effect="fillet_chamfer"
       id="path-effect19"
       nodesatellites_param="F,0,0,1,0,0,0,1 @ F,0,0,1,0,0,0,1 @ F,0,1,1,0,0.52063528,0,1 @ F,0,0,1,0,0,0,1 @ F,0,0,1,0,0,0,1 @ F,0,0,1,0,0,0,1 @ F,0,0,1,0,0,0,1 @ F,0,0,1,0,0,0,1 @ F,0,0,1,0,0,0,1 @ F,0,0,1,0,0,0,1"
       is_visible="true"
       lpeversion="1"
       radius="0"
       unit="px"
       method="auto"
       mode="F"
       chamfer_steps="1"
       flexible="false"
       use_knot_distance="true"
       apply_no_radius="true"
       apply_with_radius="true"
       only_selected="false"
       hide_knots="false" /><inkscape:path-effect
       effect="fillet_chamfer"
       id="path-effect17"
       is_visible="true"
       lpeversion="1"
       nodesatellites_param="F,0,0,1,0,0,0,1 @ F,0,0,1,0,101.72574,0,1 @ F,0,0,1,0,0,0,1 @ F,0,0,1,0,0,0,1 @ F,0,0,1,0,0,0,1 @ F,0,0,1,0,0,0,1 @ F,0,0,1,0,101.72574,0,1 @ F,0,0,1,0,0,0,1 @ F,0,0,1,0,0,0,1 @ F,0,0,1,0,0,0,1 @ F,0,0,1,0,0,0,1 @ F,0,0,1,0,0,0,1 @ F,0,0,1,0,0,0,1 @ F,0,0,1,0,0,0,1 @ F,0,0,1,0,0,0,1 @ F,0,0,1,0,0,0,1 @ F,0,0,1,0,0,0,1 @ F,0,0,1,0,0,0,1 @ F,0,0,1,0,101.72574,0,1 @ F,0,0,1,0,0,0,1 @ F,0,0,1,0,0,0,1 @ F,0,0,1,0,0,0,1 @ F,0,0,1,0,0,0,1 @ F,0,1,1,0,231.71637,0,1 @ F,0,0,1,0,0,0,1 @ F,0,0,1,0,0,0,1"
       radius="0"
       unit="px"
       method="auto"
       mode="F"
       chamfer_steps="1"
       flexible="false"
       use_knot_distance="true"
       apply_no_radius="true"
       apply_with_radius="true"
       only_selected="false"
       hide_knots="false" /><inkscape:path-effect
       effect="fillet_chamfer"
       id="path-effect15"
       is_visible="true"
       lpeversion="1"
       nodesatellites_param="F,0,0,1,0,0,0,1 @ F,0,0,1,0,0,0,1 @ F,0,0,1,0,0,0,1 @ F,0,0,1,0,662.19446,0,1 @ F,0,0,1,0,0,0,1 @ F,0,0,1,0,0,0,1 @ F,0,0,1,0,267.58733,0,1 @ F,0,0,1,0,0,0,1 @ F,0,0,1,0,1169.4817,0,1 @ F,0,0,1,0,0,0,1 @ F,0,0,1,0,607.68749,0,1 @ F,0,0,1,0,0,0,1 @ F,0,0,1,0,0,0,1 @ F,0,0,1,0,1308.7759,0,1 @ F,0,0,1,0,0,0,1 @ F,0,0,1,0,0,0,1"
       radius="0"
       unit="px"
       method="auto"
       mode="F"
       chamfer_steps="1"
       flexible="false"
       use_knot_distance="true"
       apply_no_radius="true"
       apply_with_radius="true"
       only_selected="false"
       hide_knots="false" /><inkscape:path-effect
       effect="fillet_chamfer"
       id="path-effect14"
       is_visible="true"
       lpeversion="1"
       nodesatellites_param="F,0,0,1,0,0,0,1 @ F,0,0,1,0,0,0,1 @ F,0,0,1,0,148.66881,0,1 @ F,0,0,1,0,0,0,1 @ F,0,0,1,0,0,0,1 @ F,0,0,1,0,175.10746,0,1 @ F,0,0,1,0,0,0,1 @ F,0,1,1,0,239.16669,0,1 @ F,0,0,1,0,0,0,1 @ F,0,0,1,0,121.60312,0,1 @ F,0,0,1,0,0,0,1 @ F,0,0,1,0,0,0,1 @ F,0,0,1,0,239.16669,0,1 @ F,0,0,1,0,0,0,1 @ F,0,0,1,0,0,0,1"
       radius="0"
       unit="px"
       method="auto"
       mode="F"
       chamfer_steps="1"
       flexible="false"
       use_knot_distance="true"
       apply_no_radius="true"
       apply_with_radius="true"
       only_selected="false"
       hide_knots="false" /><linearGradient
       id="linearGradient8"
       inkscape:collect="always"><stop
         style="stop-color:#bde0b2;stop-opacity:1;"
         offset="0"
         id="stop8" /><stop
         style="stop-color:#60b945;stop-opacity:1;"
         offset="1"
         id="stop9" /></linearGradient><inkscape:path-effect
       effect="fillet_chamfer"
       id="path-effect359"
       is_visible="true"
       lpeversion="1"
       nodesatellites_param="F,0,1,1,0,0.69390483,0,1 @ F,0,0,1,0,0,0,1 @ F,0,0,1,0,0,0,1 @ F,0,1,1,0,0.69390483,0,1"
       radius="0"
       unit="px"
       method="auto"
       mode="F"
       chamfer_steps="1"
       flexible="false"
       use_knot_distance="true"
       apply_no_radius="true"
       apply_with_radius="true"
       only_selected="false"
       hide_knots="false" /><inkscape:path-effect
       effect="fillet_chamfer"
       id="path-effect354"
       is_visible="true"
       lpeversion="1"
       nodesatellites_param="F,0,0,1,0,0,0,1 @ F,0,0,1,0,0,0,1 @ F,0,0,1,0,0,0,1 @ F,0,0,1,0,0,0,1 @ F,0,0,1,0,0,0,1 @ F,0,0,1,0,0.52050271,0,1 @ F,0,0,1,0,0,0,1"
       radius="0"
       unit="px"
       method="auto"
       mode="F"
       chamfer_steps="1"
       flexible="false"
       use_knot_distance="true"
       apply_no_radius="true"
       apply_with_radius="true"
       only_selected="false"
       hide_knots="false" /><inkscape:path-effect
       effect="fillet_chamfer"
       id="path-effect353"
       is_visible="true"
       lpeversion="1"
       nodesatellites_param="F,0,0,1,0,0,0,1 @ F,0,0,1,0,0,0,1 @ F,0,0,1,0,0,0,1 @ F,0,0,1,0,0,0,1 @ F,0,0,1,0,0,0,1 @ F,0,0,1,0,0.53231214,0,1 @ F,0,0,1,0,0,0,1"
       radius="0"
       unit="px"
       method="auto"
       mode="F"
       chamfer_steps="1"
       flexible="false"
       use_knot_distance="true"
       apply_no_radius="true"
       apply_with_radius="true"
       only_selected="false"
       hide_knots="false" /><inkscape:path-effect
       effect="fillet_chamfer"
       id="path-effect352"
       is_visible="true"
       lpeversion="1"
       nodesatellites_param="F,0,0,1,0,0,0,1 @ F,0,0,1,0,0,0,1 @ F,0,0,1,0,0,0,1 @ F,0,0,1,0,0,0,1 @ F,0,0,1,0,0,0,1 @ F,0,0,1,0,0.50764632,0,1 @ F,0,0,1,0,0,0,1"
       radius="0"
       unit="px"
       method="auto"
       mode="F"
       chamfer_steps="1"
       flexible="false"
       use_knot_distance="true"
       apply_no_radius="true"
       apply_with_radius="true"
       only_selected="false"
       hide_knots="false" /><linearGradient
       id="linearGradient348"
       inkscape:collect="always"><stop
         style="stop-color:#f87070;stop-opacity:1;"
         offset="0"
         id="stop348" /><stop
         style="stop-color:#f62020;stop-opacity:0;"
         offset="0.4195095"
         id="stop349" /></linearGradient><inkscape:path-effect
       effect="fillet_chamfer"
       id="path-effect334"
       nodesatellites_param="F,0,0,1,0,0,0,1 @ F,0,0,1,0,0,0,1 @ F,0,0,1,0,0,0,1 @ F,0,0,1,0,0,0,1 @ F,0,0,1,0,0,0,1 @ F,0,0,1,0,0,0,1 @ F,0,0,1,0,0,0,1"
       is_visible="true"
       lpeversion="1"
       radius="0"
       unit="px"
       method="auto"
       mode="F"
       chamfer_steps="1"
       flexible="false"
       use_knot_distance="true"
       apply_no_radius="true"
       apply_with_radius="true"
       only_selected="false"
       hide_knots="false" /><inkscape:path-effect
       effect="fillet_chamfer"
       id="path-effect327"
       nodesatellites_param="F,0,0,1,0,0,0,1 @ F,0,0,1,0,0,0,1 @ F,0,1,1,0,0.52063528,0,1 @ F,0,0,1,0,0,0,1 @ F,0,0,1,0,0,0,1 @ F,0,0,1,0,0,0,1 @ F,0,0,1,0,0,0,1 @ F,0,0,1,0,0,0,1 @ F,0,0,1,0,0,0,1 @ F,0,0,1,0,0,0,1"
       is_visible="true"
       lpeversion="1"
       radius="0"
       unit="px"
       method="auto"
       mode="F"
       chamfer_steps="1"
       flexible="false"
       use_knot_distance="true"
       apply_no_radius="true"
       apply_with_radius="true"
       only_selected="false"
       hide_knots="false" /><inkscape:path-effect
       effect="fillet_chamfer"
       id="path-effect324"
       nodesatellites_param="F,0,0,1,0,0,0,1 @ F,0,0,1,0,0,0,1 @ F,0,0,1,0,0,0,1 @ F,0,0,1,0,0,0,1 @ F,0,0,1,0,0,0,1 @ F,0,0,1,0,0,0,1 @ F,0,0,1,0,0,0,1"
       is_visible="true"
       lpeversion="1"
       radius="0"
       unit="px"
       method="auto"
       mode="F"
       chamfer_steps="1"
       flexible="false"
       use_knot_distance="true"
       apply_no_radius="true"
       apply_with_radius="true"
       only_selected="false"
       hide_knots="false" /><inkscape:path-effect
       effect="fillet_chamfer"
       id="path-effect322"
       nodesatellites_param="F,0,1,1,0,0.52063528,0,1 @ F,0,0,1,0,0,0,1 @ F,0,0,1,0,0,0,1 @ F,0,1,1,0,0.52063528,0,1 @ F,0,0,1,0,0,0,1 @ F,0,0,1,0,0,0,1 @ F,0,0,1,0,0,0,1 @ F,0,0,1,0,0,0,1 @ F,0,0,1,0,0,0,1 @ F,0,0,1,0,0,0,1 @ F,0,0,1,0,0,0,1 @ F,0,1,1,0,0.52063528,0,1"
       is_visible="true"
       lpeversion="1"
       radius="0"
       unit="px"
       method="auto"
       mode="F"
       chamfer_steps="1"
       flexible="false"
       use_knot_distance="true"
       apply_no_radius="true"
       apply_with_radius="true"
       only_selected="false"
       hide_knots="false" /><inkscape:path-effect
       effect="fillet_chamfer"
       id="path-effect320"
       nodesatellites_param="F,0,1,1,0,0.52063528,0,1 @ F,0,0,1,0,0,0,1 @ F,0,0,1,0,0,0,1 @ F,0,0,1,0,0,0,1 @ F,0,0,1,0,0,0,1 @ F,0,0,1,0,0,0,1 @ F,0,0,1,0,0,0,1 @ F,0,0,1,0,0,0,1 @ F,0,0,1,0,0,0,1 @ F,0,0,1,0,0,0,1 @ F,0,0,1,0,0,0,1 @ F,0,0,1,0,0,0,1"
       is_visible="true"
       lpeversion="1"
       radius="0"
       unit="px"
       method="auto"
       mode="F"
       chamfer_steps="1"
       flexible="false"
       use_knot_distance="true"
       apply_no_radius="true"
       apply_with_radius="true"
       only_selected="false"
       hide_knots="false" /><inkscape:path-effect
       effect="fillet_chamfer"
       id="path-effect318"
       nodesatellites_param="F,0,1,1,0,0.52063528,0,1 @ F,0,0,1,0,0,0,1 @ F,0,0,1,0,0,0,1 @ F,0,1,1,0,0.52063528,0,1 @ F,0,0,1,0,0,0,1 @ F,0,0,1,0,0,0,1 @ F,0,0,1,0,0,0,1 @ F,0,0,1,0,0,0,1 @ F,0,0,1,0,0,0,1 @ F,0,0,1,0,0,0,1 @ F,0,0,1,0,0,0,1 @ F,0,1,1,0,0.52063528,0,1"
       is_visible="true"
       lpeversion="1"
       radius="0"
       unit="px"
       method="auto"
       mode="F"
       chamfer_steps="1"
       flexible="false"
       use_knot_distance="true"
       apply_no_radius="true"
       apply_with_radius="true"
       only_selected="false"
       hide_knots="false" /><inkscape:path-effect
       effect="fillet_chamfer"
       id="path-effect278"
       nodesatellites_param="F,0,1,1,0,0.52063528,0,1 @ F,0,0,1,0,0,0,1 @ F,0,0,1,0,0,0,1 @ F,0,0,1,0,0,0,1"
       is_visible="true"
       lpeversion="1"
       radius="0"
       unit="px"
       method="auto"
       mode="F"
       chamfer_steps="1"
       flexible="false"
       use_knot_distance="true"
       apply_no_radius="true"
       apply_with_radius="true"
       only_selected="false"
       hide_knots="false" /><inkscape:path-effect
       effect="fillet_chamfer"
       id="path-effect12"
       nodesatellites_param="F,0,1,1,0,0.52063528,0,1 @ F,0,0,1,0,0,0,1 @ F,0,0,1,0,0,0,1 @ F,0,1,1,0,0.52063528,0,1 @ F,0,0,1,0,0,0,1 @ F,0,0,1,0,0,0,1 @ F,0,0,1,0,0,0,1 @ F,0,0,1,0,0,0,1 @ F,0,0,1,0,0,0,1 @ F,0,0,1,0,0,0,1 @ F,0,0,1,0,0,0,1 @ F,0,1,1,0,0.52063528,0,1"
       is_visible="true"
       lpeversion="1"
       radius="0"
       unit="px"
       method="auto"
       mode="F"
       chamfer_steps="1"
       flexible="false"
       use_knot_distance="true"
       apply_no_radius="true"
       apply_with_radius="true"
       only_selected="false"
       hide_knots="false" /><inkscape:path-effect
       effect="fillet_chamfer"
       id="path-effect11"
       is_visible="true"
       lpeversion="1"
       nodesatellites_param="F,0,0,1,0,0,0,1 @ F,0,0,1,0,0,0,1 @ F,0,0,1,0,0,0,1 @ F,0,0,1,0,0,0,1 @ F,0,0,1,0,0,0,1 @ F,0,0,1,0,0,0,1 @ F,0,0,1,0,0,0,1 @ F,0,0,1,0,0,0,1 @ F,0,0,1,0,0,0,1 @ F,0,0,1,0,0,0,1 @ F,0,0,1,0,0,0,1 @ F,0,0,1,0,0,0,1"
       radius="0"
       unit="px"
       method="auto"
       mode="F"
       chamfer_steps="1"
       flexible="false"
       use_knot_distance="true"
       apply_no_radius="true"
       apply_with_radius="true"
       only_selected="false"
       hide_knots="false" /><inkscape:path-effect
       effect="fillet_chamfer"
       id="path-effect10"
       is_visible="true"
       lpeversion="1"
       nodesatellites_param="F,0,0,1,0,0,0,1 @ F,0,0,1,0,0,0,1 @ F,0,0,1,0,0,0,1 @ F,0,0,1,0,0,0,1 @ F,0,0,1,0,0,0,1 @ F,0,0,1,0,0,0,1 @ F,0,0,1,0,0,0,1 @ F,0,0,1,0,0,0,1 @ F,0,0,1,0,0,0,1 @ F,0,0,1,0,0,0,1 @ F,0,0,1,0,0,0,1 @ F,0,0,1,0,0,0,1"
       radius="0"
       unit="px"
       method="auto"
       mode="F"
       chamfer_steps="1"
       flexible="false"
       use_knot_distance="true"
       apply_no_radius="true"
       apply_with_radius="true"
       only_selected="false"
       hide_knots="false" /><inkscape:path-effect
       effect="fillet_chamfer"
       id="path-effect9"
       is_visible="true"
       lpeversion="1"
       nodesatellites_param="F,0,0,1,0,0,0,1 @ F,0,0,1,0,0,0,1 @ F,0,0,1,0,0,0,1 @ F,0,0,1,0,0,0,1 @ F,0,0,1,0,0,0,1 @ F,0,0,1,0,0,0,1 @ F,0,0,1,0,0,0,1 @ F,0,0,1,0,0,0,1 @ F,0,0,1,0,0,0,1 @ F,0,0,1,0,0,0,1 @ F,0,0,1,0,0,0,1 @ F,0,0,1,0,0,0,1"
       radius="0"
       unit="px"
       method="auto"
       mode="F"
       chamfer_steps="1"
       flexible="false"
       use_knot_distance="true"
       apply_no_radius="true"
       apply_with_radius="true"
       only_selected="false"
       hide_knots="false" /><inkscape:path-effect
       effect="fillet_chamfer"
       id="path-effect8"
       is_visible="true"
       lpeversion="1"
       nodesatellites_param="F,0,1,1,0,0.1919198,0,1 @ F,0,0,1,0,0,0,1 @ F,0,0,1,0,0,0,1 @ F,0,0,1,0,0,0,1 @ F,0,0,1,0,0,0,1 @ F,0,0,1,0,0,0,1 @ F,0,0,1,0,0,0,1 @ F,0,0,1,0,0,0,1 @ F,0,0,1,0,0,0,1 @ F,0,0,1,0,0,0,1 @ F,0,0,1,0,0,0,1 @ F,0,0,1,0,0.1919198,0,1"
       radius="0"
       unit="px"
       method="auto"
       mode="F"
       chamfer_steps="1"
       flexible="false"
       use_knot_distance="true"
       apply_no_radius="true"
       apply_with_radius="true"
       only_selected="false"
       hide_knots="false" /><clipPath
       clipPathUnits="userSpaceOnUse"
       id="clipPath4"><g
         inkscape:label="Clip"
         id="use4" /></clipPath><linearGradient
       inkscape:collect="always"
       xlink:href="#linearGradient348"
       id="linearGradient349"
       x1="9.7893381"
       y1="15.417842"
       x2="29.543203"
       y2="31.414206"
       gradientUnits="userSpaceOnUse" /><linearGradient
       inkscape:collect="always"
       xlink:href="#linearGradient8"
       id="linearGradient9"
       x1="14.736845"
       y1="17.046547"
       x2="25.215219"
       y2="25.749897"
       gradientUnits="userSpaceOnUse" /><linearGradient
       inkscape:collect="always"
       xlink:href="#linearGradient360"
       id="linearGradient361"
       x1="31.860682"
       y1="12.538106"
       x2="35.685112"
       y2="13.667468"
       gradientUnits="userSpaceOnUse" /><linearGradient
       id="linearGradient360"
       inkscape:collect="always"><stop
         style="stop-color:#bee3b3;stop-opacity:1;"
         offset="0"
         id="stop361" /><stop
         style="stop-color:#60b945;stop-opacity:0;"
         offset="0.42431456"
         id="stop360" /></linearGradient><inkscape:path-effect
       effect="fillet_chamfer"
       id="path-effect359-5"
       is_visible="true"
       lpeversion="1"
       nodesatellites_param="F,0,1,1,0,0.69390483,0,1 @ F,0,0,1,0,0,0,1 @ F,0,0,1,0,0,0,1 @ F,0,1,1,0,0.69390483,0,1"
       radius="0"
       unit="px"
       method="auto"
       mode="F"
       chamfer_steps="1"
       flexible="false"
       use_knot_distance="true"
       apply_no_radius="true"
       apply_with_radius="true"
       only_selected="false"
       hide_knots="false" /><clipPath
       clipPathUnits="userSpaceOnUse"
       id="clipPath67"><path
         id="path67"
         clip-path="none"
         mask="none"
         style="display:inline;opacity:1;mix-blend-mode:normal;fill:#f62020;fill-opacity:1;stroke:none;stroke-width:2;stroke-linejoin:round;stroke-dasharray:none;stroke-dashoffset:0;stroke-opacity:1;paint-order:normal"
         d="m 32.375498,16.647858 c -0.737487,-3.10891 -2.231774,-4.141759 -4.043016,-4.885744 -1.811243,-0.743984 -4.087694,-1.014804 -6.36306,-0.723119 -4.550734,0.583371 -9.097135,3.416764 -9.908875,9.214911 -0.811741,5.798147 -2.0876195,9.66387 -3.1605633,12.080056 -0.685323,1.543294 -1.2878529,2.495209 -1.6337582,2.98158 -0.1621448,0.227989 -0.096987,0.488928 0.1781164,0.540821 4.6870141,0.884119 12.8769521,-9.818957 14.6367661,-12.404999 3.889102,-5.715025 9.752102,-5.967935 10.29439,-6.803506 z"
         sodipodi:nodetypes="csssscsc"
         inkscape:label="shiney"
         inkscape:original-d="m 32.375498,16.647858 c -0.737487,-3.10891 -2.231774,-4.141759 -4.043016,-4.885744 -1.811243,-0.743984 -4.087694,-1.014804 -6.36306,-0.723119 -4.550734,0.583371 -9.097135,3.416764 -9.908875,9.214911 -0.811741,5.798147 -2.0876195,9.66387 -3.1605633,12.080056 -1.0729438,2.416186 -1.9429525,3.382835 -1.9429525,3.382835 4.5824128,1.796866 13.3015468,-9.58723 15.1240768,-12.265433 3.889102,-5.715025 9.752102,-5.967935 10.29439,-6.803506 z"
         inkscape:path-effect="#path-effect67" /></clipPath><clipPath
       clipPathUnits="userSpaceOnUse"
       id="clipPath70"><path
         id="path70"
         clip-path="none"
         mask="none"
         style="display:inline;opacity:1;fill:#60b945;fill-opacity:1;stroke:none;stroke-width:2;stroke-linecap:butt;stroke-linejoin:round;stroke-dasharray:none;paint-order:normal"
         d="m 34.338816,6.5957741 -2.434519,8.7284449 c -0.4248,1.060304 -3.071152,8.295501 1.529297,1.363281 L 39.056348,9.7205185 A 0.62828923,0.62828923 81.064476 0 0 38.911668,8.8003396 L 35.105722,6.3075755 a 0.50750184,0.50750184 159.40408 0 0 -0.766906,0.2881986 z"
         sodipodi:nodetypes="ccccc"
         inkscape:label="shiney"
         inkscape:original-d="m 34.525243,5.9273813 -2.620946,9.3968377 c -0.4248,1.060304 -3.071152,8.295501 1.529297,1.363281 l 6.058553,-7.5069662 z"
         inkscape:path-effect="#path-effect69" /></clipPath><filter
       inkscape:label="Combined Lighting"
       inkscape:menu="Bevels"
       inkscape:menu-tooltip="Basic specular bevel to use for building textures"
       style="color-interpolation-filters:sRGB;"
       id="filter73"
       x="-0.039929215"
       y="-0.01662303"
       width="1.0798584"
       height="1.0332461"><feGaussianBlur
         stdDeviation="6"
         in="SourceGraphic"
         result="result0"
         id="feGaussianBlur71" /><feDiffuseLighting
         lighting-color="rgb(255,255,255)"
         diffuseConstant="1"
         surfaceScale="4"
         result="result5"
         id="feDiffuseLighting71"><feDistantLight
           elevation="45"
           azimuth="235"
           id="feDistantLight71" /></feDiffuseLighting><feComposite
         k1="1.4"
         in2="SourceGraphic"
         in="result5"
         result="fbSourceGraphic"
         operator="arithmetic"
         k2="0"
         k3="0"
         k4="0"
         id="feComposite71" /><feGaussianBlur
         result="result0"
         in="fbSourceGraphic"
         stdDeviation="6"
         id="feGaussianBlur72" /><feSpecularLighting
         specularExponent="25"
         specularConstant="1"
         surfaceScale="4"
         lighting-color="rgb(255,255,255)"
         result="result1"
         in="result0"
         id="feSpecularLighting72"><feDistantLight
           azimuth="235"
           elevation="45"
           id="feDistantLight72" /></feSpecularLighting><feComposite
         k3="1"
         k2="1"
         operator="arithmetic"
         in="fbSourceGraphic"
         in2="result1"
         result="result4"
         k1="0"
         k4="0"
         id="feComposite72" /><feGaussianBlur
         stdDeviation="1"
         in="result4"
         result="result6"
         id="feGaussianBlur73" /><feComposite
         operator="in"
         result="result2"
         in2="SourceGraphic"
         in="result6"
         id="feComposite73" /></filter><filter
       inkscape:label="Combined Lighting"
       inkscape:menu="Bevels"
       inkscape:menu-tooltip="Basic specular bevel to use for building textures"
       style="color-interpolation-filters:sRGB;"
       id="filter76"
       x="-0.035584207"
       y="-0.012762626"
       width="1.0711684"
       height="1.0255253"><feGaussianBlur
         stdDeviation="6"
         in="SourceGraphic"
         result="result0"
         id="feGaussianBlur74" /><feDiffuseLighting
         lighting-color="rgb(255,255,255)"
         diffuseConstant="1"
         surfaceScale="4"
         result="result5"
         id="feDiffuseLighting74"><feDistantLight
           elevation="45"
           azimuth="235"
           id="feDistantLight74" /></feDiffuseLighting><feComposite
         k1="1.4"
         in2="SourceGraphic"
         in="result5"
         result="fbSourceGraphic"
         operator="arithmetic"
         k2="0"
         k3="0"
         k4="0"
         id="feComposite74" /><feGaussianBlur
         result="result0"
         in="fbSourceGraphic"
         stdDeviation="6"
         id="feGaussianBlur75" /><feSpecularLighting
         specularExponent="25"
         specularConstant="1"
         surfaceScale="4"
         lighting-color="rgb(255,255,255)"
         result="result1"
         in="result0"
         id="feSpecularLighting75"><feDistantLight
           azimuth="235"
           elevation="45"
           id="feDistantLight75" /></feSpecularLighting><feComposite
         k3="1"
         k2="1"
         operator="arithmetic"
         in="fbSourceGraphic"
         in2="result1"
         result="result4"
         k1="0"
         k4="0"
         id="feComposite75" /><feGaussianBlur
         stdDeviation="1"
         in="result4"
         result="result6"
         id="feGaussianBlur76" /><feComposite
         operator="in"
         result="result2"
         in2="SourceGraphic"
         in="result6"
         id="feComposite76" /></filter></defs><sodipodi:namedview
     id="namedview1"
     pagecolor="#ffffff"
     bordercolor="#000000"
     borderopacity="0.25"
     inkscape:showpageshadow="2"
     inkscape:pageopacity="0.0"
     inkscape:pagecheckerboard="true"
     inkscape:deskcolor="#d1d1d1"
     inkscape:zoom="0.16309259"
     inkscape:cx="2274.7815"
     inkscape:cy="1919.1553"
     inkscape:window-width="1366"
     inkscape:window-height="740"
     inkscape:window-x="0"
     inkscape:window-y="0"
     inkscape:window-maximized="1"
     inkscape:current-layer="g23" /><g
     inkscape:groupmode="layer"
     id="layer1"
     inkscape:label="green"
     inkscape:highlight-color="#60b945"
     transform="matrix(118.5125,0,0,118.5125,-850.76246,-737.69521)"><g
       id="g360"
       clip-path="none"
       inkscape:label="stem"><path
         id="path277"
         clip-path="none"
         mask="none"
         style="display:inline;opacity:1;fill:#60b945;fill-opacity:1;stroke:none;stroke-width:2;stroke-linecap:butt;stroke-linejoin:round;stroke-dasharray:none;paint-order:normal"
         d="m 34.338816,6.5957741 -2.434519,8.7284449 c -0.4248,1.060304 -3.071152,8.295501 1.529297,1.363281 L 39.056348,9.7205185 A 0.62828923,0.62828923 81.064476 0 0 38.911668,8.8003396 L 35.105722,6.3075755 a 0.50750184,0.50750184 159.40408 0 0 -0.766906,0.2881986 z"
         sodipodi:nodetypes="ccccc"
         inkscape:label="shiney"
         inkscape:path-effect="#path-effect359"
         inkscape:original-d="m 34.525243,5.9273813 -2.620946,9.3968377 c -0.4248,1.060304 -3.071152,8.295501 1.529297,1.363281 l 6.058553,-7.5069662 z" /><path
         id="path277-1"
         clip-path="url(#clipPath70)"
         mask="none"
         style="display:inline;fill:#60b945;fill-opacity:1;stroke:url(#linearGradient361);stroke-width:2;stroke-linecap:butt;stroke-linejoin:round;stroke-dasharray:none;paint-order:normal"
         d="m 34.338816,6.5957741 -2.434519,8.7284449 c -0.4248,1.060304 -3.071152,8.295501 1.529297,1.363281 L 39.056348,9.7205185 A 0.62828923,0.62828923 81.064476 0 0 38.911668,8.8003396 L 35.105722,6.3075755 a 0.50750184,0.50750184 159.40408 0 0 -0.766906,0.2881986 z"
         sodipodi:nodetypes="ccccc"
         inkscape:label="shiney"
         inkscape:path-effect="#path-effect359-5"
         inkscape:original-d="m 34.525243,5.9273813 -2.620946,9.3968377 c -0.4248,1.060304 -3.071152,8.295501 1.529297,1.363281 l 6.058553,-7.5069662 z" /></g><path
       id="path326"
       clip-path="none"
       mask="none"
       style="display:inline;opacity:1;fill:#197e2c;fill-opacity:1;stroke:none"
       inkscape:label="shade"
       d="m 18.864885,31.972604 c 1.283262,1.340065 2.076163,8.105318 8.571651,7.393612 0.587013,-0.0836 -2.599727,-3.052391 -1.948842,-5.917394 0.539373,-2.916763 3.588487,-5.050993 6.511344,-4.510947 2.915325,0.372813 5.188028,3.299123 4.828272,6.221871 C 48.505013,4.247212 15.475933,34.473575 18.864885,31.972604 Z"
       sodipodi:nodetypes="cccccc" /><path
       id="path17"
       clip-path="none"
       mask="none"
       style="display:inline;opacity:1;fill:url(#linearGradient9);fill-opacity:1;stroke:none"
       d="M 31.904297,15.324219 C 30.246148,8.9203323 13.684028,8.6576123 12.060547,20.253906 10.734114,29.728425 8.1683618,34.043078 7.2738564,35.304795 c -0.1660124,0.234164 -0.099883,0.497276 0.1685212,0.600414 9.2680974,3.561354 16.5320834,4.250639 21.8935604,3.139713 -2.514812,-0.677387 -4.26215,-2.958055 -4.261719,-5.5625 2e-6,-3.18103 2.578735,-5.759763 5.759765,-5.759766 3.18103,2e-6 5.759764,2.578736 5.759766,5.759766 -1.56e-4,0.94938 -0.234986,1.884 -0.683594,2.720703 3.429266,-2.573829 5.085108,-6.363283 5.0625,-10.365234 -0.05754,-10.185443 -8.604281,-9.188221 -8.604281,-9.188221 z"
       sodipodi:nodetypes="cscccsccscc"
       inkscape:label="leaf"
       inkscape:original-d="M 31.904297,15.324219 C 30.246148,8.9203323 13.684028,8.6576123 12.060547,20.253906 10.437065,31.8502 6.9570312,35.716797 6.9570312,35.716797 c 9.5002208,3.725248 16.9241918,4.45837 22.3789068,3.328125 -2.514812,-0.677387 -4.26215,-2.958055 -4.261719,-5.5625 2e-6,-3.18103 2.578735,-5.759763 5.759765,-5.759766 3.18103,2e-6 5.759764,2.578736 5.759766,5.759766 -1.56e-4,0.94938 -0.234986,1.884 -0.683594,2.720703 3.429266,-2.573829 5.085108,-6.363283 5.0625,-10.365234 -0.05754,-10.185443 -8.604281,-9.188221 -8.604281,-9.188221 z"
       inkscape:path-effect="#path-effect19" /></g><g
     inkscape:groupmode="layer"
     id="layer2"
     inkscape:label="red"
     inkscape:highlight-color="#f62020"
     style="display:inline;opacity:1"
     transform="translate(-46.085114,-45.420263)"><path
       id="path349"
       clip-path="none"
       mask="none"
       style="display:inline;opacity:1;mix-blend-mode:normal;fill:#f62020;fill-opacity:1;stroke:none;stroke-width:2;stroke-linejoin:round;stroke-dasharray:none;stroke-dashoffset:0;stroke-opacity:1;paint-order:normal"
       d="m 32.375498,16.647858 c -0.737487,-3.10891 -2.231774,-4.141759 -4.043016,-4.885744 -1.811243,-0.743984 -4.087694,-1.014804 -6.36306,-0.723119 -4.550734,0.583371 -9.097135,3.416764 -9.908875,9.214911 -0.811741,5.798147 -2.0876195,9.66387 -3.1605633,12.080056 -0.685323,1.543294 -1.2878529,2.495209 -1.6337582,2.98158 -0.1621448,0.227989 -0.096987,0.488928 0.1781164,0.540821 4.6870141,0.884119 12.8769521,-9.818957 14.6367661,-12.404999 3.889102,-5.715025 9.752102,-5.967935 10.29439,-6.803506 z"
       sodipodi:nodetypes="csssscsc"
       inkscape:label="shiney"
       transform="matrix(118.5125,0,0,118.5125,-804.67734,-692.27494)"
       inkscape:original-d="m 32.375498,16.647858 c -0.737487,-3.10891 -2.231774,-4.141759 -4.043016,-4.885744 -1.811243,-0.743984 -4.087694,-1.014804 -6.36306,-0.723119 -4.550734,0.583371 -9.097135,3.416764 -9.908875,9.214911 -0.811741,5.798147 -2.0876195,9.66387 -3.1605633,12.080056 -1.0729438,2.416186 -1.9429525,3.382835 -1.9429525,3.382835 4.5824128,1.796866 13.3015468,-9.58723 15.1240768,-12.265433 3.889102,-5.715025 9.752102,-5.967935 10.29439,-6.803506 z"
       inkscape:path-effect="#path-effect352" /><path
       id="path60"
       clip-path="url(#clipPath67)"
       mask="none"
       style="display:inline;opacity:1;mix-blend-mode:normal;fill:none;fill-opacity:1;stroke:url(#linearGradient349);stroke-width:2;stroke-linejoin:round;stroke-dasharray:none;stroke-dashoffset:0;stroke-opacity:1;paint-order:normal"
       d="m 32.375498,16.647858 c -0.737487,-3.10891 -2.231774,-4.141759 -4.043016,-4.885744 -1.811243,-0.743984 -4.087694,-1.014804 -6.36306,-0.723119 -4.550734,0.583371 -9.097135,3.416764 -9.908875,9.214911 -0.811741,5.798147 -2.0876195,9.66387 -3.1605633,12.080056 -0.685323,1.543294 -1.2878529,2.495209 -1.6337582,2.98158 -0.1621448,0.227989 -0.096987,0.488928 0.1781164,0.540821 4.6870141,0.884119 12.8769521,-9.818957 14.6367661,-12.404999 3.889102,-5.715025 9.752102,-5.967935 10.29439,-6.803506 z"
       sodipodi:nodetypes="csssscsc"
       inkscape:label="shiney"
       transform="matrix(118.5125,0,0,118.5125,-804.67734,-692.27494)" /></g><g
     id="g23"
     inkscape:label="title"
     transform="matrix(0.52452566,0.92826812,-0.87400124,0.49386173,4368.4906,-229.02735)"><g
       id="g54"
       inkscape:label="fill letters"><path
         style="fill:#1e1e1c;fill-opacity:1;fill-rule:evenodd;stroke:#1e1e1c;stroke-width:116.067;stroke-linecap:butt;stroke-linejoin:round;stroke-dasharray:none;stroke-dashoffset:0;stroke-opacity:1;paint-order:stroke markers fill"
         id="path53"
         transform="matrix(0.46968856,-0.88283218,0.8574388,0.51458596,0,0)"
         sodipodi:type="arc"
         sodipodi:cx="-2292.822"
         sodipodi:cy="1631.1211"
         sodipodi:rx="70.90937"
         sodipodi:ry="68.741211"
         sodipodi:start="0"
         sodipodi:end="6.2705558"
         sodipodi:arc-type="slice"
         d="m -2221.9127,1631.1211 a 70.90937,68.741211 0 0 1 -70.6854,68.7409 70.90937,68.741211 0 0 1 -71.1319,-68.3068 70.90937,68.741211 0 0 1 70.2363,-69.1722 70.90937,68.741211 0 0 1 71.5754,67.8699 l -70.9037,0.8682 z" /><path
         style="fill:#1e1e1c;fill-opacity:1;fill-rule:evenodd;stroke:#1e1e1c;stroke-width:116.067;stroke-linecap:butt;stroke-linejoin:round;stroke-dasharray:none;stroke-dashoffset:0;stroke-opacity:1;paint-order:stroke markers fill"
         id="path54"
         transform="matrix(0.46968856,-0.88283218,0.8574388,0.51458596,0,0)"
         sodipodi:type="arc"
         sodipodi:cx="-2660.5002"
         sodipodi:cy="1911.1779"
         sodipodi:rx="55.151733"
         sodipodi:ry="22.913738"
         sodipodi:start="0"
         sodipodi:end="6.2705558"
         sodipodi:arc-type="slice"
         d="m -2605.3485,1911.1779 a 55.151733,22.913738 0 0 1 -54.9776,22.9136 55.151733,22.913738 0 0 1 -55.3248,-22.7689 55.151733,22.913738 0 0 1 54.6283,-23.0575 55.151733,22.913738 0 0 1 55.6697,22.6234 l -55.1473,0.2894 z" /></g><path
       d="m 722.36279,3973.3497 198.31731,18.2022 q -35.49594,81.2271 -13.25088,156.8983 28.42423,96.6909 123.80808,133.7343 87.5331,33.6422 187.377,4.2911 14.7138,-4.3254 28.0677,-9.3929 100.5252,-38.6859 131.1993,-120.7792 22.2635,-60.21 4.159,-125.6803 -29.8449,-105.4078 -117.8084,-156.0506 l 78.832,-81.4068 q 100.2664,45.8844 157.1809,208.4179 36.4598,104.6051 -6.2108,211.9194 -51.3902,128.1467 -201.127,185.8666 -21.4528,8.5901 -42.4726,14.7693 -166.0562,48.8155 -300.38202,-23.5944 -113.61768,-60.2285 -151.31332,-169.0375 -20.14572,-56.8775 -25.94729,-127.1062 l -53.28882,-2.6037 z m 396.62881,-731.9748 q 105.6185,-11.8595 182.1286,39.836 81.143,53.2887 98.939,153.6957 20.1838,110.0353 -39.62,192.0461 -61.0344,81.0696 -171.7929,95.8241 -104.2433,13.8866 -184.227,-47.2925 -76.43688,-59.4412 -94.37761,-160.9341 -17.50678,-98.2354 46.7852,-179.739 64.14731,-82.5894 162.16471,-93.4363 z m 20.3285,111.1211 q -54.2934,7.2326 -92.376,53.1957 -39.3131,45.022 -31.4286,95.9131 8.0291,51.977 63.1865,84.4142 53.9269,31.4961 114.1568,19.0521 55.8866,-11.8653 83.5444,-53.1244 26.572,-41.1144 19.3394,-95.4078 -6.6539,-49.9499 -53.7763,-80.1421 -48.3528,-31.1334 -102.6462,-23.9008 z M 993.25617,2712.1833 q 12.03883,-2.2521 22.99323,-2.3077 58.0586,-0.2949 97.7395,47.7044 l -62.0287,81.3801 q -14.3353,-18.5502 -31.8625,-18.4612 -31.7679,0.1614 -38.11801,44.0126 -4.23155,29.5993 14.52457,55.7954 20.96924,30.5668 57.11894,30.3831 l 214.7185,1.1004 1.6902,-98.6013 82.1473,-2.6082 4.6996,278.2265 -95.2982,1.5796 -0.345,-67.9177 -303.42736,3.7322 -2.92467,71.2207 -90.91644,1.5572 -0.91808,-180.7485 55.8733,0.8116 q -38.50753,-32.6686 -38.86364,-102.7771 -0.20587,-40.5315 23.68806,-81.1854 31.50085,-52.7428 89.5094,-62.8967 z m -323.03662,-723.025 102.01321,14.0283 -4.76246,66.797 578.4772,87.2892 5.2914,-54.5608 103.0984,14.1775 -19.5369,174.2364 -72.5623,-11.0841 q 33.8456,43.3562 25.1218,122.8777 -10.3654,91.4592 -79.3067,150.5365 -73.8792,62.8213 -174.0204,51.262 -100.1411,-11.5593 -164.19695,-84.5025 -69.82111,-79.2648 -53.66294,-188.7255 10.48717,-68.2213 50.73683,-103.5999 l -326.65932,-44.9203 z m 416.70485,258.5528 q -60.6795,39.2038 -64.3973,98.4041 -4.3553,55.7953 33.0445,97.4287 33.6558,36.6954 80.3214,43.1126 57.5181,7.9096 101.2133,-20.3606 43.6952,-28.2701 52.0931,-81.2979 10.0394,-64.9656 -48.3191,-115.01 z"
       id="text21"
       style="font-size:1095.46px;line-height:0.9;font-family:FinkHeavy;-inkscape-font-specification:'FinkHeavy, Normal';text-align:center;letter-spacing:28.9973px;text-anchor:middle;fill:#1e1e1c;fill-rule:evenodd;stroke:#1e1e1c;stroke-width:115.989;stroke-linejoin:round;paint-order:stroke markers fill"
       inkscape:label="outline"
       aria-label="Cord" /><path
       d="m 722.36279,3973.3497 198.31731,18.2022 q -35.49594,81.2271 -13.25088,156.8983 28.42423,96.6909 123.80808,133.7343 87.5331,33.6422 187.377,4.2911 14.7138,-4.3254 28.0677,-9.3929 100.5252,-38.6859 131.1993,-120.7792 22.2635,-60.21 4.159,-125.6803 -29.8449,-105.4078 -117.8084,-156.0506 l 78.832,-81.4068 q 100.2664,45.8844 157.1809,208.4179 36.4598,104.6051 -6.2108,211.9194 -51.3902,128.1467 -201.127,185.8666 -21.4528,8.5901 -42.4726,14.7693 -166.0562,48.8155 -300.38202,-23.5944 -113.61768,-60.2285 -151.31332,-169.0375 -20.14572,-56.8775 -25.94729,-127.1062 l -53.28882,-2.6037 z m 396.62881,-731.9748 q 105.6185,-11.8595 182.1286,39.836 81.143,53.2887 98.939,153.6957 20.1838,110.0353 -39.62,192.0461 -61.0344,81.0696 -171.7929,95.8241 -104.2433,13.8866 -184.227,-47.2925 -76.43688,-59.4412 -94.37761,-160.9341 -17.50678,-98.2354 46.7852,-179.739 64.14731,-82.5894 162.16471,-93.4363 z m 20.3285,111.1211 q -54.2934,7.2326 -92.376,53.1957 -39.3131,45.022 -31.4286,95.9131 8.0291,51.977 63.1865,84.4142 53.9269,31.4961 114.1568,19.0521 55.8866,-11.8653 83.5444,-53.1244 26.572,-41.1144 19.3394,-95.4078 -6.6539,-49.9499 -53.7763,-80.1421 -48.3528,-31.1334 -102.6462,-23.9008 z M 993.25617,2712.1833 q 12.03883,-2.2521 22.99323,-2.3077 58.0586,-0.2949 97.7395,47.7044 l -62.0287,81.3801 q -14.3353,-18.5502 -31.8625,-18.4612 -31.7679,0.1614 -38.11801,44.0126 -4.23155,29.5993 14.52457,55.7954 20.96924,30.5668 57.11894,30.3831 l 214.7185,1.1004 1.6902,-98.6013 82.1473,-2.6082 4.6996,278.2265 -95.2982,1.5796 -0.345,-67.9177 -303.42736,3.7322 -2.92467,71.2207 -90.91644,1.5572 -0.91808,-180.7485 55.8733,0.8116 q -38.50753,-32.6686 -38.86364,-102.7771 -0.20587,-40.5315 23.68806,-81.1854 31.50085,-52.7428 89.5094,-62.8967 z m -323.03662,-723.025 102.01321,14.0283 -4.76246,66.797 578.4772,87.2892 5.2914,-54.5608 103.0984,14.1775 -19.5369,174.2364 -72.5623,-11.0841 q 33.8456,43.3562 25.1218,122.8777 -10.3654,91.4592 -79.3067,150.5365 -73.8792,62.8213 -174.0204,51.262 -100.1411,-11.5593 -164.19695,-84.5025 -69.82111,-79.2648 -53.66294,-188.7255 10.48717,-68.2213 50.73683,-103.5999 l -326.65932,-44.9203 z m 416.70485,258.5528 q -60.6795,39.2038 -64.3973,98.4041 -4.3553,55.7953 33.0445,97.4287 33.6558,36.6954 80.3214,43.1126 57.5181,7.9096 101.2133,-20.3606 43.6952,-28.2701 52.0931,-81.2979 10.0394,-64.9656 -48.3191,-115.01 z"
       id="text70"
       style="font-size:1095.46px;line-height:0.9;font-family:FinkHeavy;-inkscape-font-specification:'FinkHeavy, Normal';text-align:center;letter-spacing:28.9973px;text-anchor:middle;display:inline;fill:#fef23c;fill-rule:evenodd;stroke-width:115.989;stroke-linejoin:round;paint-order:stroke markers fill;filter:url(#filter76)"
       inkscape:label="Leaf"
       aria-label="Cord" /><path
       d="m -58.595613,3656.4301 73.965322,-14.6989 9.619176,43.3436 515.905555,20.2249 50.82045,221.2618 -67.96953,18.5167 -21.96509,-83.5078 -382.39942,194.6998 10.43481,50.8853 -76.873546,17.0605 -27.497406,-120.0357 419.386412,-217.4957 -389.067127,-5.4697 17.060426,76.8735 -82.5085094,22.6014 z m 549.111703,-525.0688 10.55913,130.2972 -31.78411,1.7571 q 30.10305,28.5391 32.87745,78.7245 3.05184,55.204 -26.37403,99.6187 -31.70394,48.7356 -85.18882,52.5314 -57.66701,4.027 -95.76027,-32.4602 -38.92969,-36.4409 -45.60466,-96.4785 -5.28367,-50.0467 15.49641,-83.9157 -32.62053,1.8033 -52.37512,23.8699 -20.59102,22.1129 -18.78766,54.7334 2.45072,44.3305 45.1885,88.9507 l -60.51227,43.6163 q -56.35176,-48.0625 -60.92952,-130.8684 -2.40448,-43.4941 15.54265,-83.0793 20.96915,-45.6252 59.21755,-67.0362 32.62464,-16.9053 92.66219,-23.5802 64.31216,-5.2334 127.83413,-9.584 l -3.00971,-39.2657 z m -92.0898,140.1668 -60.96646,5.0484 q -16.82917,29.4557 -15.11829,60.4034 1.80336,32.6205 17.83003,49.3531 15.98043,15.8961 42.69975,13.58 22.5372,-2.0849 37.45821,-20.5283 14.03835,-19.2337 12.60491,-45.1628 -1.98831,-35.9663 -34.50815,-62.6938 z m -71.83988,-617.2797 q 76.07906,5.0909 124.17204,50.5821 55.84272,52.9093 50.47189,141.5786 -3.45674,57.7223 -41.14121,103.1462 l 171.96088,14.468 4.57099,-70.2383 86.16615,5.148 -21.98271,209.1375 -70.0154,-7.0742 1.65666,-46.9493 -447.46175,-37.3126 -4.54857,41.6457 -70.08968,-6.2398 7.02749,-135.6186 50.89846,4.5312 q -28.06736,-43.7084 -21.58743,-107.0486 7.83432,-69.1067 58.25765,-115.9195 53.0751,-48.2589 121.64454,-43.8364 z m 5.12226,103.0597 q -39.8284,-6.0688 -68.53487,14.0829 -29.54088,20.0775 -33.18077,60.9632 -6.25708,60.837 33.01162,92.0864 l 95.12171,8.4682 q 49.32637,-25.0441 54.60048,-84.2866 2.89705,-32.5416 -19.98076,-58.9678 -23.71222,-26.5004 -61.03741,-32.3463 z m 130.38914,-494.5461 -51.56964,241.7986 q 28.67444,6.1736 55.20222,-14.0561 25.91384,-21.2429 34.31346,-51.9588 13.40548,-47.6011 -8.69611,-84.0763 l 70.7694,-31.8 q 37.83414,56.7241 17.04224,134.4271 -20.193,75.2624 -81.79851,111.8988 -68.49826,40.1203 -159.23342,12.6803 -80.1588,-24.8447 -113.57095,-92.5594 -28.08639,-57.7824 -12.71464,-120.427 14.97247,-61.0175 66.43095,-94.9684 70.09533,-46.6288 183.825,-10.9588 z m -91.7417,68.0563 q -30.08691,-3.9325 -52.56189,13.8415 -22.47497,17.774 -28.04966,44.0077 -5.77433,27.0473 6.73403,53.4055 13.5366,29.1982 42.64037,40.6525 z"
       id="text35"
       style="font-size:837.701px;line-height:0.9;font-family:FinkHeavy;-inkscape-font-specification:'FinkHeavy, Normal';text-align:center;letter-spacing:9.66578px;text-anchor:middle;fill:#1e1e1c;fill-rule:evenodd;stroke:#1e1e1c;stroke-width:106.324;stroke-linejoin:round;paint-order:stroke markers fill"
       inkscape:label="outline"
       aria-label="Vape" /><path
       d="m -58.595613,3656.4301 73.965322,-14.6989 9.619176,43.3436 515.905555,20.2249 50.82045,221.2618 -67.96953,18.5167 -21.96509,-83.5078 -382.39942,194.6998 10.43481,50.8853 -76.873546,17.0605 -27.497406,-120.0357 419.386412,-217.4957 -389.067127,-5.4697 17.060426,76.8735 -82.5085094,22.6014 z m 549.111703,-525.0688 10.55913,130.2972 -31.78411,1.7571 q 30.10305,28.5391 32.87745,78.7245 3.05184,55.204 -26.37403,99.6187 -31.70394,48.7356 -85.18882,52.5314 -57.66701,4.027 -95.76027,-32.4602 -38.92969,-36.4409 -45.60466,-96.4785 -5.28367,-50.0467 15.49641,-83.9157 -32.62053,1.8033 -52.37512,23.8699 -20.59102,22.1129 -18.78766,54.7334 2.45072,44.3305 45.1885,88.9507 l -60.51227,43.6163 q -56.35176,-48.0625 -60.92952,-130.8684 -2.40448,-43.4941 15.54265,-83.0793 20.96915,-45.6252 59.21755,-67.0362 32.62464,-16.9053 92.66219,-23.5802 64.31216,-5.2334 127.83413,-9.584 l -3.00971,-39.2657 z m -92.0898,140.1668 -60.96646,5.0484 q -16.82917,29.4557 -15.11829,60.4034 1.80336,32.6205 17.83003,49.3531 15.98043,15.8961 42.69975,13.58 22.5372,-2.0849 37.45821,-20.5283 14.03835,-19.2337 12.60491,-45.1628 -1.98831,-35.9663 -34.50815,-62.6938 z m -71.83988,-617.2797 q 76.07906,5.0909 124.17204,50.5821 55.84272,52.9093 50.47189,141.5786 -3.45674,57.7223 -41.14121,103.1462 l 171.96088,14.468 4.57099,-70.2383 86.16615,5.148 -21.98271,209.1375 -70.0154,-7.0742 1.65666,-46.9493 -447.46175,-37.3126 -4.54857,41.6457 -70.08968,-6.2398 7.02749,-135.6186 50.89846,4.5312 q -28.06736,-43.7084 -21.58743,-107.0486 7.83432,-69.1067 58.25765,-115.9195 53.0751,-48.2589 121.64454,-43.8364 z m 5.12226,103.0597 q -39.8284,-6.0688 -68.53487,14.0829 -29.54088,20.0775 -33.18077,60.9632 -6.25708,60.837 33.01162,92.0864 l 95.12171,8.4682 q 49.32637,-25.0441 54.60048,-84.2866 2.89705,-32.5416 -19.98076,-58.9678 -23.71222,-26.5004 -61.03741,-32.3463 z m 130.38914,-494.5461 -51.56964,241.7986 q 28.67444,6.1736 55.20222,-14.0561 25.91384,-21.2429 34.31346,-51.9588 13.40548,-47.6011 -8.69611,-84.0763 l 70.7694,-31.8 q 37.83414,56.7241 17.04224,134.4271 -20.193,75.2624 -81.79851,111.8988 -68.49826,40.1203 -159.23342,12.6803 -80.1588,-24.8447 -113.57095,-92.5594 -28.08639,-57.7824 -12.71464,-120.427 14.97247,-61.0175 66.43095,-94.9684 70.09533,-46.6288 183.825,-10.9588 z m -91.7417,68.0563 q -30.08691,-3.9325 -52.56189,13.8415 -22.47497,17.774 -28.04966,44.0077 -5.77433,27.0473 6.73403,53.4055 13.5366,29.1982 42.64037,40.6525 z"
       id="text71"
       style="font-size:837.701px;line-height:0.9;font-family:FinkHeavy;-inkscape-font-specification:'FinkHeavy, Normal';text-align:center;letter-spacing:9.66578px;text-anchor:middle;fill:#fef23c;fill-rule:evenodd;stroke-width:106.324;stroke-linejoin:round;paint-order:stroke markers fill;filter:url(#filter73)"
       inkscape:label="New"
       aria-label="Vape" /></g></svg>
