<?xml version="1.0" encoding="UTF-8"?>
<!-- Created with Inkscape (http://www.inkscape.org/) -->
<svg width="4005" height="3947.3" version="1.1" viewBox="0 0 4005 3947.3" xml:space="preserve" xmlns="http://www.w3.org/2000/svg" xmlns:xlink="http://www.w3.org/1999/xlink"><defs><linearGradient id="linearGradient349" x1="9.7893" x2="29.543" y1="15.418" y2="31.414" gradientUnits="userSpaceOnUse"><stop stop-color="#f87070" offset="0"/><stop stop-color="#f62020" stop-opacity="0" offset=".41951"/></linearGradient><linearGradient id="linearGradient9" x1="14.737" x2="25.215" y1="17.047" y2="25.75" gradientUnits="userSpaceOnUse"><stop stop-color="#bde0b2" offset="0"/><stop stop-color="#60b945" offset="1"/></linearGradient><linearGradient id="linearGradient361" x1="31.861" x2="35.685" y1="12.538" y2="13.667" gradientUnits="userSpaceOnUse"><stop stop-color="#bee3b3" offset="0"/><stop stop-color="#60b945" stop-opacity="0" offset=".42431"/></linearGradient><clipPath id="clipPath67"><path d="m32.375 16.648c-0.73749-3.1089-2.2318-4.1418-4.043-4.8857-1.8112-0.74398-4.0877-1.0148-6.3631-0.72312-4.5507 0.58337-9.0971 3.4168-9.9089 9.2149-0.81174 5.7981-2.0876 9.6639-3.1606 12.08-0.68532 1.5433-1.2879 2.4952-1.6338 2.9816-0.16214 0.22799-0.096987 0.48893 0.17812 0.54082 4.687 0.88412 12.877-9.819 14.637-12.405 3.8891-5.715 9.7521-5.9679 10.294-6.8035z" fill="#f62020" style="mix-blend-mode:normal;paint-order:normal"/></clipPath><clipPath id="clipPath70"><path d="m34.339 6.5958-2.4345 8.7284c-0.4248 1.0603-3.0712 8.2955 1.5293 1.3633l5.6228-6.967a0.62829 0.62829 81.064 0 0-0.14468-0.92018l-3.8059-2.4928a0.5075 0.5075 159.4 0 0-0.76691 0.2882z" fill="#60b945" style="paint-order:normal"/></clipPath><filter id="filter73" x="-.039929" y="-.016623" width="1.0799" height="1.0332" color-interpolation-filters="sRGB"><feGaussianBlur in="SourceGraphic" result="result0" stdDeviation="6"/><feDiffuseLighting lighting-color="rgb(255,255,255)" result="result5" surfaceScale="4"><feDistantLight azimuth="235" elevation="45"/></feDiffuseLighting><feComposite in="result5" in2="SourceGraphic" k1="1.4" operator="arithmetic" result="fbSourceGraphic"/><feGaussianBlur in="fbSourceGraphic" result="result0" stdDeviation="6"/><feSpecularLighting lighting-color="rgb(255,255,255)" in="result0" result="result1" specularExponent="25" surfaceScale="4"><feDistantLight azimuth="235" elevation="45"/></feSpecularLighting><feComposite in="fbSourceGraphic" in2="result1" k2="1" k3="1" operator="arithmetic" result="result4"/><feGaussianBlur in="result4" result="result6" stdDeviation="1"/><feComposite in="result6" in2="SourceGraphic" operator="in" result="result2"/></filter><filter id="filter76" x="-.035584" y="-.012763" width="1.0712" height="1.0255" color-interpolation-filters="sRGB"><feGaussianBlur in="SourceGraphic" result="result0" stdDeviation="6"/><feDiffuseLighting lighting-color="rgb(255,255,255)" result="result5" surfaceScale="4"><feDistantLight azimuth="235" elevation="45"/></feDiffuseLighting><feComposite in="result5" in2="SourceGraphic" k1="1.4" operator="arithmetic" result="fbSourceGraphic"/><feGaussianBlur in="fbSourceGraphic" result="result0" stdDeviation="6"/><feSpecularLighting lighting-color="rgb(255,255,255)" in="result0" result="result1" specularExponent="25" surfaceScale="4"><feDistantLight azimuth="235" elevation="45"/></feSpecularLighting><feComposite in="fbSourceGraphic" in2="result1" k2="1" k3="1" operator="arithmetic" result="result4"/><feGaussianBlur in="result4" result="result6" stdDeviation="1"/><feComposite in="result6" in2="SourceGraphic" operator="in" result="result2"/></filter></defs><g transform="matrix(118.51 0 0 118.51 -850.76 -737.7)"><g fill="#60b945"><path d="m34.339 6.5958-2.4345 8.7284c-0.4248 1.0603-3.0712 8.2955 1.5293 1.3633l5.6228-6.967a0.62829 0.62829 81.064 0 0-0.14468-0.92018l-3.8059-2.4928a0.5075 0.5075 159.4 0 0-0.76691 0.2882z" style="paint-order:normal"/><path d="m34.339 6.5958-2.4345 8.7284c-0.4248 1.0603-3.0712 8.2955 1.5293 1.3633l5.6228-6.967a0.62829 0.62829 81.064 0 0-0.14468-0.92018l-3.8059-2.4928a0.5075 0.5075 159.4 0 0-0.76691 0.2882z" clip-path="url(#clipPath70)" stroke="url(#linearGradient361)" stroke-linejoin="round" stroke-width="2" style="paint-order:normal"/></g><path d="m18.865 31.973c1.2833 1.3401 2.0762 8.1053 8.5717 7.3936 0.58701-0.0836-2.5997-3.0524-1.9488-5.9174 0.53937-2.9168 3.5885-5.051 6.5113-4.5109 2.9153 0.37281 5.188 3.2991 4.8283 6.2219 11.678-30.913-21.351-0.68617-17.962-3.1871z" fill="#197e2c"/><path d="m31.904 15.324c-1.6581-6.4039-18.22-6.6666-19.844 4.9297-1.3264 9.4745-3.8922 13.789-4.7867 15.051-0.16601 0.23416-0.099883 0.49728 0.16852 0.60041 9.2681 3.5614 16.532 4.2506 21.894 3.1397-2.5148-0.67739-4.2622-2.9581-4.2617-5.5625 2e-6 -3.181 2.5787-5.7598 5.7598-5.7598 3.181 2e-6 5.7598 2.5787 5.7598 5.7598-1.56e-4 0.94938-0.23499 1.884-0.68359 2.7207 3.4293-2.5738 5.0851-6.3633 5.0625-10.365-0.05754-10.185-8.6043-9.1882-8.6043-9.1882z" fill="url(#linearGradient9)"/></g><g transform="translate(-46.085 -45.42)"><path transform="matrix(118.51 0 0 118.51 -804.68 -692.27)" d="m32.375 16.648c-0.73749-3.1089-2.2318-4.1418-4.043-4.8857-1.8112-0.74398-4.0877-1.0148-6.3631-0.72312-4.5507 0.58337-9.0971 3.4168-9.9089 9.2149-0.81174 5.7981-2.0876 9.6639-3.1606 12.08-0.68532 1.5433-1.2879 2.4952-1.6338 2.9816-0.16214 0.22799-0.096987 0.48893 0.17812 0.54082 4.687 0.88412 12.877-9.819 14.637-12.405 3.8891-5.715 9.7521-5.9679 10.294-6.8035z" fill="#f62020" style="mix-blend-mode:normal;paint-order:normal"/><path transform="matrix(118.51 0 0 118.51 -804.68 -692.27)" d="m32.375 16.648c-0.73749-3.1089-2.2318-4.1418-4.043-4.8857-1.8112-0.74398-4.0877-1.0148-6.3631-0.72312-4.5507 0.58337-9.0971 3.4168-9.9089 9.2149-0.81174 5.7981-2.0876 9.6639-3.1606 12.08-0.68532 1.5433-1.2879 2.4952-1.6338 2.9816-0.16214 0.22799-0.096987 0.48893 0.17812 0.54082 4.687 0.88412 12.877-9.819 14.637-12.405 3.8891-5.715 9.7521-5.9679 10.294-6.8035z" clip-path="url(#clipPath67)" fill="none" stroke="url(#linearGradient349)" stroke-linejoin="round" stroke-width="2" style="mix-blend-mode:normal;paint-order:normal"/></g><g transform="matrix(.52453 .92827 -.874 .49386 4368.5 -229.03)" fill-rule="evenodd" stroke-linejoin="round"><g fill="#1e1e1c" stroke="#1e1e1c" stroke-width="116.07"><path transform="matrix(.46969 -.88283 .85744 .51459 0 0)" d="m-2221.9 1631.1a70.909 68.741 0 0 1-70.685 68.741 70.909 68.741 0 0 1-71.132-68.307 70.909 68.741 0 0 1 70.236-69.172 70.909 68.741 0 0 1 71.575 67.87l-70.904 0.8682z" style="paint-order:stroke markers fill"/><path transform="matrix(.46969 -.88283 .85744 .51459 0 0)" d="m-2605.3 1911.2a55.152 22.914 0 0 1-54.978 22.914 55.152 22.914 0 0 1-55.325-22.769 55.152 22.914 0 0 1 54.628-23.058 55.152 22.914 0 0 1 55.67 22.623l-55.147 0.2894z" style="paint-order:stroke markers fill"/></g><path d="m722.36 3973.3 198.32 18.202q-35.496 81.227-13.251 156.9 28.424 96.691 123.81 133.73 87.533 33.642 187.38 4.2911 14.714-4.3254 28.068-9.3929 100.53-38.686 131.2-120.78 22.264-60.21 4.159-125.68-29.845-105.41-117.81-156.05l78.832-81.407q100.27 45.884 157.18 208.42 36.46 104.61-6.2108 211.92-51.39 128.15-201.13 185.87-21.453 8.5901-42.473 14.769-166.06 48.816-300.38-23.594-113.62-60.228-151.31-169.04-20.146-56.878-25.947-127.11l-53.289-2.6037zm396.63-731.97q105.62-11.86 182.13 39.836 81.143 53.289 98.939 153.7 20.184 110.04-39.62 192.05-61.034 81.07-171.79 95.824-104.24 13.887-184.23-47.292-76.437-59.441-94.378-160.93-17.507-98.235 46.785-179.74 64.147-82.589 162.16-93.436zm20.328 111.12q-54.293 7.2326-92.376 53.196-39.313 45.022-31.429 95.913 8.0291 51.977 63.186 84.414 53.927 31.496 114.16 19.052 55.887-11.865 83.544-53.124 26.572-41.114 19.339-95.408-6.6539-49.95-53.776-80.142-48.353-31.133-102.65-23.901zm-146.06-640.31q12.039-2.2521 22.993-2.3077 58.059-0.2949 97.74 47.704l-62.029 81.38q-14.335-18.55-31.862-18.461-31.768 0.1614-38.118 44.013-4.2316 29.599 14.525 55.795 20.969 30.567 57.119 30.383l214.72 1.1004 1.6902-98.601 82.147-2.6082 4.6996 278.23-95.298 1.5796-0.345-67.918-303.43 3.7322-2.9247 71.221-90.916 1.5572-0.91808-180.75 55.873 0.8116q-38.508-32.669-38.864-102.78-0.20587-40.532 23.688-81.185 31.501-52.743 89.509-62.897zm-323.04-723.02 102.01 14.028-4.7625 66.797 578.48 87.289 5.2914-54.561 103.1 14.178-19.537 174.24-72.562-11.084q33.846 43.356 25.122 122.88-10.365 91.459-79.307 150.54-73.879 62.821-174.02 51.262-100.14-11.559-164.2-84.502-69.821-79.265-53.663-188.73 10.487-68.221 50.737-103.6l-326.66-44.92zm416.7 258.55q-60.68 39.204-64.397 98.404-4.3553 55.795 33.044 97.429 33.656 36.695 80.321 43.113 57.518 7.9096 101.21-20.361 43.695-28.27 52.093-81.298 10.039-64.966-48.319-115.01z" fill="#1e1e1c" stroke="#1e1e1c" stroke-width="115.99" style="paint-order:stroke markers fill" aria-label="Cord"/><path d="m722.36 3973.3 198.32 18.202q-35.496 81.227-13.251 156.9 28.424 96.691 123.81 133.73 87.533 33.642 187.38 4.2911 14.714-4.3254 28.068-9.3929 100.53-38.686 131.2-120.78 22.264-60.21 4.159-125.68-29.845-105.41-117.81-156.05l78.832-81.407q100.27 45.884 157.18 208.42 36.46 104.61-6.2108 211.92-51.39 128.15-201.13 185.87-21.453 8.5901-42.473 14.769-166.06 48.816-300.38-23.594-113.62-60.228-151.31-169.04-20.146-56.878-25.947-127.11l-53.289-2.6037zm396.63-731.97q105.62-11.86 182.13 39.836 81.143 53.289 98.939 153.7 20.184 110.04-39.62 192.05-61.034 81.07-171.79 95.824-104.24 13.887-184.23-47.292-76.437-59.441-94.378-160.93-17.507-98.235 46.785-179.74 64.147-82.589 162.16-93.436zm20.328 111.12q-54.293 7.2326-92.376 53.196-39.313 45.022-31.429 95.913 8.0291 51.977 63.186 84.414 53.927 31.496 114.16 19.052 55.887-11.865 83.544-53.124 26.572-41.114 19.339-95.408-6.6539-49.95-53.776-80.142-48.353-31.133-102.65-23.901zm-146.06-640.31q12.039-2.2521 22.993-2.3077 58.059-0.2949 97.74 47.704l-62.029 81.38q-14.335-18.55-31.862-18.461-31.768 0.1614-38.118 44.013-4.2316 29.599 14.525 55.795 20.969 30.567 57.119 30.383l214.72 1.1004 1.6902-98.601 82.147-2.6082 4.6996 278.23-95.298 1.5796-0.345-67.918-303.43 3.7322-2.9247 71.221-90.916 1.5572-0.91808-180.75 55.873 0.8116q-38.508-32.669-38.864-102.78-0.20587-40.532 23.688-81.185 31.501-52.743 89.509-62.897zm-323.04-723.02 102.01 14.028-4.7625 66.797 578.48 87.289 5.2914-54.561 103.1 14.178-19.537 174.24-72.562-11.084q33.846 43.356 25.122 122.88-10.365 91.459-79.307 150.54-73.879 62.821-174.02 51.262-100.14-11.559-164.2-84.502-69.821-79.265-53.663-188.73 10.487-68.221 50.737-103.6l-326.66-44.92zm416.7 258.55q-60.68 39.204-64.397 98.404-4.3553 55.795 33.044 97.429 33.656 36.695 80.321 43.113 57.518 7.9096 101.21-20.361 43.695-28.27 52.093-81.298 10.039-64.966-48.319-115.01z" fill="#fef23c" filter="url(#filter76)" stroke-width="115.99" style="paint-order:stroke markers fill" aria-label="Cord"/><path d="m-58.596 3656.4 73.965-14.699 9.6192 43.344 515.91 20.225 50.82 221.26-67.97 18.517-21.965-83.508-382.4 194.7 10.435 50.885-76.874 17.06-27.497-120.04 419.39-217.5-389.07-5.4697 17.06 76.874-82.509 22.601zm549.11-525.07 10.559 130.3-31.784 1.7571q30.103 28.539 32.877 78.724 3.0518 55.204-26.374 99.619-31.704 48.736-85.189 52.531-57.667 4.027-95.76-32.46-38.93-36.441-45.605-96.478-5.2837-50.047 15.496-83.916-32.621 1.8033-52.375 23.87-20.591 22.113-18.788 54.733 2.4507 44.33 45.188 88.951l-60.512 43.616q-56.352-48.062-60.93-130.87-2.4045-43.494 15.543-83.079 20.969-45.625 59.218-67.036 32.625-16.905 92.662-23.58 64.312-5.2334 127.83-9.584l-3.0097-39.266zm-92.09 140.17-60.966 5.0484q-16.829 29.456-15.118 60.403 1.8034 32.62 17.83 49.353 15.98 15.896 42.7 13.58 22.537-2.0849 37.458-20.528 14.038-19.234 12.605-45.163-1.9883-35.966-34.508-62.694zm-71.84-617.28q76.079 5.0909 124.17 50.582 55.843 52.909 50.472 141.58-3.4567 57.722-41.141 103.15l171.96 14.468 4.571-70.238 86.166 5.148-21.983 209.14-70.015-7.0742 1.6567-46.949-447.46-37.313-4.5486 41.646-70.09-6.2398 7.0275-135.62 50.898 4.5312q-28.067-43.708-21.587-107.05 7.8343-69.107 58.258-115.92 53.075-48.259 121.64-43.836zm5.1223 103.06q-39.828-6.0688-68.535 14.083-29.541 20.078-33.181 60.963-6.2571 60.837 33.012 92.086l95.122 8.4682q49.326-25.044 54.6-84.287 2.897-32.542-19.981-58.968-23.712-26.5-61.037-32.346zm130.39-494.55-51.57 241.8q28.674 6.1736 55.202-14.056 25.914-21.243 34.313-51.959 13.405-47.601-8.6961-84.076l70.769-31.8q37.834 56.724 17.042 134.43-20.193 75.262-81.799 111.9-68.498 40.12-159.23 12.68-80.159-24.845-113.57-92.559-28.086-57.782-12.715-120.43 14.972-61.018 66.431-94.968 70.095-46.629 183.82-10.959zm-91.742 68.056q-30.087-3.9325-52.562 13.842-22.475 17.774-28.05 44.008-5.7743 27.047 6.734 53.406 13.537 29.198 42.64 40.652z" fill="#1e1e1c" stroke="#1e1e1c" stroke-width="106.32" style="paint-order:stroke markers fill" aria-label="Vape"/><path d="m-58.596 3656.4 73.965-14.699 9.6192 43.344 515.91 20.225 50.82 221.26-67.97 18.517-21.965-83.508-382.4 194.7 10.435 50.885-76.874 17.06-27.497-120.04 419.39-217.5-389.07-5.4697 17.06 76.874-82.509 22.601zm549.11-525.07 10.559 130.3-31.784 1.7571q30.103 28.539 32.877 78.724 3.0518 55.204-26.374 99.619-31.704 48.736-85.189 52.531-57.667 4.027-95.76-32.46-38.93-36.441-45.605-96.478-5.2837-50.047 15.496-83.916-32.621 1.8033-52.375 23.87-20.591 22.113-18.788 54.733 2.4507 44.33 45.188 88.951l-60.512 43.616q-56.352-48.062-60.93-130.87-2.4045-43.494 15.543-83.079 20.969-45.625 59.218-67.036 32.625-16.905 92.662-23.58 64.312-5.2334 127.83-9.584l-3.0097-39.266zm-92.09 140.17-60.966 5.0484q-16.829 29.456-15.118 60.403 1.8034 32.62 17.83 49.353 15.98 15.896 42.7 13.58 22.537-2.0849 37.458-20.528 14.038-19.234 12.605-45.163-1.9883-35.966-34.508-62.694zm-71.84-617.28q76.079 5.0909 124.17 50.582 55.843 52.909 50.472 141.58-3.4567 57.722-41.141 103.15l171.96 14.468 4.571-70.238 86.166 5.148-21.983 209.14-70.015-7.0742 1.6567-46.949-447.46-37.313-4.5486 41.646-70.09-6.2398 7.0275-135.62 50.898 4.5312q-28.067-43.708-21.587-107.05 7.8343-69.107 58.258-115.92 53.075-48.259 121.64-43.836zm5.1223 103.06q-39.828-6.0688-68.535 14.083-29.541 20.078-33.181 60.963-6.2571 60.837 33.012 92.086l95.122 8.4682q49.326-25.044 54.6-84.287 2.897-32.542-19.981-58.968-23.712-26.5-61.037-32.346zm130.39-494.55-51.57 241.8q28.674 6.1736 55.202-14.056 25.914-21.243 34.313-51.959 13.405-47.601-8.6961-84.076l70.769-31.8q37.834 56.724 17.042 134.43-20.193 75.262-81.799 111.9-68.498 40.12-159.23 12.68-80.159-24.845-113.57-92.559-28.086-57.782-12.715-120.43 14.972-61.018 66.431-94.968 70.095-46.629 183.82-10.959zm-91.742 68.056q-30.087-3.9325-52.562 13.842-22.475 17.774-28.05 44.008-5.7743 27.047 6.734 53.406 13.537 29.198 42.64 40.652z" fill="#fef23c" filter="url(#filter73)" stroke-width="106.32" style="paint-order:stroke markers fill" aria-label="Vape"/></g></svg>
